<svg xmlns="http://www.w3.org/2000/svg" width="25" height="25" viewBox="0 0 25 25" fill="none">
  <g clip-path="url(#clip0_11_5)">
    <rect width="25" height="25" fill="#F3F3F3"/>
    <path d="M6.76427 20.5V20.28L7.20427 20.126C7.49761 20.038 7.68827 19.906 7.77627 19.73C7.87894 19.554 7.93027 19.3193 7.93027 19.026V7.498C7.93027 7.20467 7.87894 6.97 7.77627 6.794C7.67361 6.618 7.47561 6.47867 7.18227 6.376L6.76427 6.2V5.98H12.1103C14.2956 5.98 15.8723 6.38333 16.8403 7.19C17.8229 7.982 18.3143 9.03067 18.3143 10.336C18.3143 11.172 18.1089 11.942 17.6983 12.646C17.3023 13.3353 16.6423 13.8853 15.7183 14.296C14.7943 14.7067 13.5476 14.912 11.9783 14.912H11.2303V18.96C11.2303 19.532 11.5163 19.906 12.0883 20.082L12.7483 20.28V20.5H6.76427ZM11.2303 14.472H12.0663C12.7849 14.472 13.3716 14.3547 13.8263 14.12C14.2809 13.8853 14.6183 13.4747 14.8383 12.888C15.0583 12.3013 15.1683 11.4873 15.1683 10.446C15.1683 9.39 15.0436 8.56867 14.7943 7.982C14.5596 7.39533 14.2076 6.992 13.7383 6.772C13.2689 6.53733 12.6823 6.42 11.9783 6.42H11.2303V14.472Z" fill="#2B2525"/>
  </g>
  <defs>
    <clipPath id="clip0_11_5">
      <rect width="25" height="25" fill="white"/>
    </clipPath>
  </defs>
</svg>
